inDegrees=no
num_controls=7
num_derivatives=13
num_iterations=105
num_multipliers=7
num_parameters=0
num_slacks=7
num_states=26
objective=4.969655
objective_accelerations=0.474484
objective_balance=0.031669
objective_effort=0.289084
objective_height=4.131855
objective_ligament=0.042563
solver_duration=1165.008459
status=Solve_Succeeded
success=true
DataType=double
version=3
OpenSimVersion=4.4-2022-07-23-0e9fedc
endheader
time	/jointset/ground_pelvis/pelvis_tilt/value	/jointset/ground_pelvis/pelvis_tx/value	/jointset/ground_pelvis/pelvis_ty/value	/jointset/hip_l/hip_flexion_l/value	/jointset/hip_l/hip_adduction_l/value	/jointset/hip_l/hip_rotation_l/value	/jointset/back/lumbar_extension/value	/jointset/patellofemoral_l/patellar_flexion_l/value	/jointset/knee_l/knee_flexion_l/value	/jointset/knee_l/knee_adduction_l/value	/jointset/knee_l/knee_rotation_l/value	/jointset/ankle_l/ankle_angle_l/value	/jointset/subtalar_l/subtalar_angle_l/value	/jointset/ground_pelvis/pelvis_tilt/speed	/jointset/ground_pelvis/pelvis_tx/speed	/jointset/ground_pelvis/pelvis_ty/speed	/jointset/hip_l/hip_flexion_l/speed	/jointset/hip_l/hip_adduction_l/speed	/jointset/hip_l/hip_rotation_l/speed	/jointset/back/lumbar_extension/speed	/jointset/patellofemoral_l/patellar_flexion_l/speed	/jointset/knee_l/knee_flexion_l/speed	/jointset/knee_l/knee_adduction_l/speed	/jointset/knee_l/knee_rotation_l/speed	/jointset/ankle_l/ankle_angle_l/speed	/jointset/subtalar_l/subtalar_angle_l/speed	/forceset/tau_hip_flexion_l	/forceset/tau_hip_adduction_l	/forceset/tau_hip_rotation_l	/forceset/tau_knee_flexion_l	/forceset/tau_ankle_angle_l	/forceset/tau_subtalar_angle_l	/forceset/tau_lumbar_extension	lambda_cid13_p0	lambda_cid13_p1	lambda_cid13_p2	lambda_cid13_p3	lambda_cid13_p4	lambda_cid13_p5	lambda_cid14_p0	/jointset/ground_pelvis/pelvis_tilt/accel	/jointset/ground_pelvis/pelvis_tx/accel	/jointset/ground_pelvis/pelvis_ty/accel	/jointset/hip_l/hip_flexion_l/accel	/jointset/hip_l/hip_adduction_l/accel	/jointset/hip_l/hip_rotation_l/accel	/jointset/back/lumbar_extension/accel	/jointset/patellofemoral_l/patellar_flexion_l/accel	/jointset/knee_l/knee_flexion_l/accel	/jointset/knee_l/knee_adduction_l/accel	/jointset/knee_l/knee_rotation_l/accel	/jointset/ankle_l/ankle_angle_l/accel	/jointset/subtalar_l/subtalar_angle_l/accel	gamma_cid13_p0	gamma_cid13_p1	gamma_cid13_p2	gamma_cid13_p3	gamma_cid13_p4	gamma_cid13_p5	gamma_cid14_p0
1	-0.6864658723461747	-0.1701675330570101	0.6449977842708199	1.747074065710471	-0.4667765539194274	-0.1579726099606233	-0.261781975030139	0.9213238816055797	0.9213238816056072	-0.1739979767509219	-0.1745183935301817	-0.08636788652543367	-0.1600849835123446	-0.01844412991321208	0.01140231664758873	0.004602201154208042	-0.00109957200672098	0.0001841390321110797	0.0002715255475709999	1.523625888869581e-05	-0.0009747825398713408	-0.0009747825398719671	-0.0005639708645980796	-0.0002250016006344366	0.0193172312323619	0.00874324454623919	-0.3863461477629477	0.01790578971118941	-0.001545361396643294	-0.190281458263023	0.1634361324493313	0.08209389390680762	0.3163892835554792	11.57824004381486	-38.79173642512025	7.117681274514419	-8.934276760130123	-625.9909882617447	-54.0900823653628	-20.36395006612439	2.350499789577012	0.7222539113824742	1.474638866542246	-6.349856444242545	0.2774642200089701	-1.658764374512375	-0.02618594915626547	-3.444367108220427	-3.444367108220394	-0.04431373731801862	-0.01236364888283305	0.2136891797476664	0.3915961540543859	2.218601173045962e-09	6.064701552380383e-09	-4.248313712374283e-09	1.60102036944957e-09	-1.759682745341483e-09	5.996794198369067e-09	1.456804220011302e-09
1.01	-0.6865340373866954	-0.1700175025853562	0.645117373973749	1.746747220618926	-0.4667602061484933	-0.1580529692089216	-0.2617818085377766	0.9211419438546256	0.9211419438546369	-0.1740045287955154	-0.1745207978435284	-0.08616401999968311	-0.1599773305320383	0.004809799157428283	0.01860499725751812	0.01931139351561221	-0.06426025959497714	0.003086776911816299	-0.01634000309852645	1.84706348682323e-05	-0.03540852218272727	-0.03540852218273033	-0.0007457338143023907	-0.0002546344130387592	0.02145364608113906	0.01278789374816598	-0.3861995216357498	0.01799959510842527	-0.001538578610625553	-0.1901599908167028	0.1631965282339566	0.08205966777755667	0.3162824021868688	11.51545741575952	-38.76818115869914	7.116555232527203	-8.959478875339565	-625.8266537569801	-54.09157427940193	-20.37248613978846	2.312640707714558	0.719457914768856	1.468406384865433	-6.297797377685339	0.296868687749217	-1.661842842433929	0.01363939377703133	-3.442240148650249	-3.442240148650627	-0.005002621503081957	0.001922488068520977	0.2132538614554052	0.4109798616529697	7.419057490071714e-12	6.730353725919595e-10	5.527670785131044e-09	-7.572433802144151e-10	-5.702656669473543e-09	1.709006471183494e-08	-2.088463738007106e-09
1.02	-0.6863697028881357	-0.1697954087518094	0.6453839249930752	1.745789044159168	-0.4667147909756071	-0.158299342890275	-0.2617815974491081	0.9206157961560058	0.9206157961559647	-0.1740128774791821	-0.1745234613676902	-0.08593886208063568	-0.1598292149480345	0.02805577790435072	0.02581498902618315	0.03399446443375991	-0.1273658456459662	0.00599761942346025	-0.03293136105565387	2.415552291710627e-05	-0.06981677207887087	-0.06981677207887647	-0.0009232986722485035	-0.0002768438059328165	0.02357550989041515	0.01683576528573948	-0.3860528955086697	0.01809340050558477	-0.001531795824778325	-0.1900385233703815	0.162956924018564	0.08202544164822333	0.3161755208181737	11.44926333807004	-38.74503665129983	7.116646225576259	-9.005258881130015	-625.7378851084979	-54.09972227385477	-20.39697468426274	2.348909724833701	0.7237161431292566	1.469414577890885	-6.338836136788884	0.2791051463972796	-1.654730236717279	-0.0256958467426117	-3.439269158878309	-3.439269158878297	-0.0434741189662283	-0.01087896497942481	0.2107789718469764	0.3922406211840707	-2.219707177539956e-09	-4.198741502872151e-09	1.573187798271296e-08	-2.816209566545165e-09	-9.524981104421671e-09	2.760084983252563e-08	-5.490057210618067e-09
1.03	-0.6859729512187303	-0.1695011689898767	0.6457971192719059	1.744200209536921	-0.4666401840005472	-0.1587114132744684	-0.2617813240512294	0.9197457508931723	0.9197457508931697	-0.1740229889117675	-0.1745262412582704	-0.08569258456215806	-0.1596405738029401	0.05129196037273686	0.03303501939436921	0.04863433955109428	-0.1903785782116761	0.008930156142785663	-0.04946804558294766	3.126408090368719e-05	-0.1041825586146608	-0.1041825586146626	-0.001097485498106519	-0.0002704780751497533	0.02567500172902646	0.0208968822592471	-0.3855501844154364	0.01822648582249128	-0.001530148505991294	-0.1898923033442727	0.1626439958650566	0.08195247273126444	0.3158283599643177	11.37600750989894	-38.70680381879453	7.117728819193609	-9.041274240160655	-625.378408224999	-54.13760754991159	-20.43743684025878	2.31058176129993	0.7214539009257591	1.459763518934668	-6.27911837738121	0.3012854519347319	-1.650943195707745	0.01402521067502181	-3.433773322981751	-3.433773322981202	-0.004167851173199826	0.007699625755005537	0.2087862700375979	0.4137084002309135	-4.446996107666659e-09	-9.065213385434993e-09	2.594045479968343e-08	-4.872121696107207e-09	-1.334607442213323e-08	3.810569122471862e-08	-8.890184617051398e-09
1.04	-0.6853439158739538	-0.1691346674408102	0.6463564102099637	1.741981922276809	-0.4665360601548542	-0.1592884116309876	-0.2617809573670584	0.9185323397806134	0.9185323397805978	-0.1740347975900758	-0.1745286964348001	-0.08542546172925926	-0.1594111892551512	0.0745125129794738	0.04026734645296689	0.06321379627935048	-0.2532563732141614	0.01190099355151815	-0.06591695550915351	4.281278311221822e-05	-0.1384899420325459	-0.1384899420325441	-0.001262747795055304	-0.0002119009984719551	0.02774457277440668	0.02498444582462083	-0.385047473322387	0.01835957113927568	-0.001528501187695818	-0.1897460833181282	0.1623310677115261	0.08187950381417873	0.3154811991103227	11.29930313490069	-38.66895266838376	7.119998015205207	-9.09751969955321	-625.0951054346	-54.18227171942215	-20.493822309273	2.345783752504121	0.7261754812112399	1.457330900075186	-6.311848624143732	0.2867652842793232	-1.637175316498491	-0.02480781789849092	-3.427588535297703	-3.427588535297765	-0.04168921318419103	-0.0004366957989863302	0.2047948132003085	0.3975299395577072	-6.473786847448106e-09	-1.3317698984552e-08	3.575183955029992e-08	-6.690787548546535e-09	-1.687635191231285e-08	4.739977610479469e-08	-1.195554712780501e-08
1.05	-0.684482759577895	-0.1686957756793656	0.6470611359334927	1.739135664752746	-0.4664019837872261	-0.160029285519431	-0.2617804808443265	0.9169761978642011	0.9169761978641708	-0.1740482437111227	-0.1745301848738342	-0.08513782076887456	-0.1591407571282154	0.09771358375270751	0.04751338222589609	0.07771546445078859	-0.315957079446169	0.01492764230178494	-0.08222685501288222	5.242105897784456e-05	-0.1727240028636851	-0.1727240028636885	-0.001423933383734265	-6.4167027487149e-05	0.02977605229414959	0.02911218396348993	-0.3841634461457599	0.01851793380737271	-0.001532448509773424	-0.1895891047804227	0.1619566507440462	0.08176710976596122	0.3148713400687127	11.21992136676998	-38.61673106963451	7.123654885343551	-9.143552020734798	-624.5281242150716	-54.26095805707398	-20.56613651279516	2.306491995130322	0.7241723645141359	1.444198064078547	-6.243476542429839	0.3126188329523175	-1.62326254584263	0.0138345438617195	-3.419146066735361	-3.41914606673611	-0.002955249512995205	0.02563319303432313	0.2011906798897355	0.4219238468466456	-8.494312018781265e-09	-1.755099751231133e-08	4.555081204884286e-08	-8.502039454825779e-09	-2.03975414078821e-08	5.665602484386712e-08	-1.501044823556863e-08
1.06	-0.6833897479230266	-0.168184352612356	0.6479104009964141	1.735663541182411	-0.4662372400995876	-0.1609323314586488	-0.2617799103601215	0.9150781490975546	0.9150781490974843	-0.1740632260915985	-0.1745295450240496	-0.08483009178158471	-0.158828742000732	0.1208835847418303	0.0547736075659595	0.09212166415798714	-0.3784295824662061	0.0180344575541322	-0.09835136565795456	6.160507614459512e-05	-0.2068713120833496	-0.2068713120833577	-0.001569999684529197	0.000213756922946949	0.03176217815502667	0.03330104593415304	-0.3832794189692286	0.01867629647541349	-0.001536395831796628	-0.1894321262427329	0.1615822337765535	0.08165471571768114	0.3142614810270324	11.13704420207153	-38.5648164913942	7.128410535541446	-9.209288634698693	-624.0383700348846	-54.34679096099308	-20.65430858490427	2.339569795682102	0.7290133946378683	1.438237207227203	-6.266207981749503	0.3027985846955991	-1.600097544766958	-0.02489266963852966	-3.41023821300287	-3.410238213002823	-0.03866535560726404	0.02560130009125706	0.1957240814268063	0.4097547059165434	-1.011298189649219e-08	-2.155133306139047e-08	5.3592748590037e-08	-1.02868135737255e-08	-2.363992846082347e-08	6.424570661402427e-08	-1.759431174053078e-08
1.07	-0.6820651723293001	-0.1676002495725374	0.6489031978776887	1.73156793122612	-0.4660409845537761	-0.161995536417109	-0.2617792987081469	0.9128391102241696	0.9128391102241437	-0.1740796262159173	-0.1745253721166882	-0.08450275419121323	-0.1584745013532635	0.1440255204167016	0.06204972057003069	0.1064164481821708	-0.4406412917488866	0.02123689184453347	-0.1142449068981347	5.863998897492314e-05	-0.2409175895965064	-0.2409175895965126	-0.001704420488941322	0.0006539363873140861	0.03369555038998039	0.03756317757784259	-0.3820337455778978	0.01885740860224894	-0.001544659125618197	-0.1892531564482618	0.161129052717704	0.08151215514988545	0.3134032891619161	11.04546736128651	-38.50070214569196	7.133990853112243	-9.260847363471031	-623.2761222249329	-54.47110917091236	-20.75832051143376	2.300600243988174	0.727315839688632	1.421903993442871	-6.190988500734499	0.3320013466383315	-1.577288491116256	0.01168877141629299	-3.398987503384702	-3.398987503384477	5.603971759292684e-06	0.05820887765062144	0.1906769234303206	0.4368533348794075	-1.171027649262746e-08	-2.553927696266747e-08	6.154122577179768e-08	-1.20701792996795e-08	-2.686748559660378e-08	7.174674120498377e-08	-2.015312005385454e-08
